<svg width="15" height="29" viewBox="0 0 15 29" fill="none" xmlns="http://www.w3.org/2000/svg">
<path d="M12 13.5H3.165C3.44378 11.6435 4.10668 9.86557 5.11138 8.27975C6.11608 6.69392 7.44049 5.33508 9 4.29L11.685 2.49L10.035 0L7.35 1.8C5.08992 3.30611 3.23656 5.34684 1.9544 7.74108C0.672234 10.1353 0.00091063 12.8091 0 15.525V25.5C0 26.2956 0.31607 27.0587 0.87868 27.6213C1.44129 28.1839 2.20435 28.5 3 28.5H12C12.7956 28.5 13.5587 28.1839 14.1213 27.6213C14.6839 27.0587 15 26.2956 15 25.5V16.5C15 15.7044 14.6839 14.9413 14.1213 14.3787C13.5587 13.8161 12.7956 13.5 12 13.5Z" fill="#E52F42"/>
    <path d="M12 13.5H3.165C3.44378 11.6435 4.10668 9.86557 5.11138 8.27975C6.11608 6.69392 7.44049 5.33508 9 4.29L11.685 2.49L10.035 0L7.35 1.8C5.08992 3.30611 3.23656 5.34684 1.9544 7.74108C0.672234 10.1353 0.00091063 12.8091 0 15.525V25.5C0 26.2956 0.31607 27.0587 0.87868 27.6213C1.44129 28.1839 2.20435 28.5 3 28.5H12C12.7956 28.5 13.5587 28.1839 14.1213 27.6213C14.6839 27.0587 15 26.2956 15 25.5V16.5C15 15.7044 14.6839 14.9413 14.1213 14.3787C13.5587 13.8161 12.7956 13.5 12 13.5Z" fill="#E52F42"/>


</svg>


